<svg width="24" height="16" viewBox="0 0 24 16" fill="none" xmlns="http://www.w3.org/2000/svg">
<rect x="0.3" y="0.3" width="23.4" height="15.4" rx="2.9" fill="white" stroke="#CECCCA" stroke-width="0.6"/>
<path d="M7.76939 9.27951H5.37242L4.81288 10.3655H3.36865L6.30247 5.10555H7.43669L9.52362 10.3655H8.16258L7.76939 9.27951ZM7.39132 8.23787L6.77884 6.5609L5.91684 8.23787H7.39132ZM12.4045 10.432C11.8601 10.432 11.3887 10.331 10.9905 10.1291C10.5973 9.92223 10.2949 9.62921 10.0832 9.24996C9.87145 8.86581 9.76559 8.41517 9.76559 7.89804C9.76559 7.32181 9.88403 6.81946 10.121 6.39098C10.3629 5.95758 10.7007 5.62514 11.1342 5.39366C11.5728 5.15726 12.0818 5.03906 12.6616 5.03906C13.0195 5.03906 13.3572 5.08831 13.6748 5.18681C13.9924 5.28532 14.2746 5.42814 14.5217 5.61529L14.0075 6.59783C13.7907 6.43531 13.579 6.31711 13.3724 6.24323C13.1657 6.16936 12.9514 6.13242 12.7296 6.13242C12.2457 6.13242 11.8701 6.29002 11.603 6.60522C11.3358 6.9155 11.2022 7.34646 11.2022 7.89804C11.2022 8.36594 11.3056 8.72296 11.5123 8.96923C11.724 9.21551 12.0315 9.33861 12.4347 9.33861C12.6465 9.33861 12.8632 9.30167 13.085 9.2278C13.3119 9.14902 13.5589 9.03082 13.826 8.8732L14.1814 9.85574C14 10.0281 13.7453 10.1685 13.4177 10.2768C13.09 10.3803 12.7523 10.432 12.4045 10.432ZM20.2499 5.10555L19.8265 10.3655H18.4276L18.6015 8.23787H16.439L16.2651 10.3655H14.8738L15.2972 5.10555H16.6961L16.5297 7.1519H18.6923L18.8662 5.10555H20.2499Z" fill="#504C49"/>
</svg>
