<svg width="23" height="16" viewBox="0 0 23 16" fill="none" xmlns="http://www.w3.org/2000/svg">
<rect x="0.3" y="0.3" width="22.3333" height="15.4" rx="2.9" fill="white" stroke="#D9D9D9" stroke-width="0.6"/>
<path fill-rule="evenodd" clip-rule="evenodd" d="M6.9637 10.8399H5.57438L4.53257 6.79602C4.48312 6.61 4.37812 6.44554 4.22368 6.36803C3.83825 6.17325 3.41353 6.01824 2.9502 5.94005V5.78436H5.18827C5.49716 5.78436 5.72883 6.01824 5.76744 6.28985L6.30799 9.20686L7.69663 5.78436H9.04733L6.9637 10.8399ZM9.81854 10.8399H8.50645L9.58687 5.78436H10.899L9.81854 10.8399ZM12.5981 7.18432C12.6367 6.91203 12.8684 6.75634 13.1387 6.75634C13.5634 6.71725 14.0261 6.79543 14.4122 6.98954L14.6438 5.90105C14.2577 5.74536 13.833 5.66718 13.4476 5.66718C12.1741 5.66718 11.2474 6.36745 11.2474 7.33933C11.2474 8.0787 11.9038 8.46691 12.3671 8.70079C12.8684 8.93399 13.0615 9.08968 13.0229 9.32288C13.0229 9.67267 12.6367 9.82837 12.2513 9.82837C11.788 9.82837 11.3247 9.71177 10.9006 9.51698L10.6689 10.6061C11.1323 10.8003 11.6335 10.8784 12.0969 10.8784C13.5248 10.9169 14.4122 10.2173 14.4122 9.16719C14.4122 7.84482 12.5981 7.76732 12.5981 7.18432ZM19.0027 10.8399L17.9609 5.78436H16.8418C16.6101 5.78436 16.3785 5.94005 16.3013 6.17325L14.3721 10.8399H15.7228L15.9924 10.1012H17.652L17.8064 10.8399H19.0027ZM17.0358 7.1452L17.4212 9.05056H16.3408L17.0358 7.1452Z" fill="#172B85"/>
</svg>
