<svg width="24" height="16" viewBox="0 0 24 16" fill="none" xmlns="http://www.w3.org/2000/svg">
<rect x="0.833203" y="0.3" width="22.3333" height="15.4" rx="2.9" fill="#1F72CD" stroke="#D9D9D9" stroke-width="0.6"/>
<path fill-rule="evenodd" clip-rule="evenodd" d="M4.64471 5.66718L2.49902 10.4983H5.06772L5.38616 9.72805H6.11405L6.43249 10.4983H9.2599V9.91043L9.51184 10.4983H10.9744L11.2263 9.898V10.4983H17.1066L17.8216 9.74805L18.4911 10.4983L21.5113 10.5046L19.3588 8.09624L21.5113 5.66718H18.5379L17.8419 6.40359L17.1935 5.66718H10.7966L10.2473 6.91414L9.68506 5.66718H7.12173V6.23508L6.83658 5.66718H4.64471ZM5.14104 6.35313H6.39314L7.81637 9.62916V6.35313H9.188L10.2873 8.70203L11.3004 6.35313H12.6652V9.8198H11.8347L11.828 7.10333L10.6173 9.8198H9.87441L8.65694 7.10333V9.8198H6.94855L6.62467 9.04262H4.87487L4.55167 9.81912H3.63633L5.14104 6.35313ZM16.8037 6.35313H13.427V9.81776H16.7514L17.8229 8.66952L18.8557 9.81776H19.9353L18.3661 8.09548L19.9353 6.35313H18.9025L17.8364 7.48818L16.8037 6.35313ZM5.75032 6.93906L5.17383 8.32355H6.32614L5.75032 6.93906ZM14.2582 7.70376V7.07092V7.07031H16.3652L17.2845 8.08239L16.3244 9.09999H14.2582V8.40911H16.1003V7.70376H14.2582Z" fill="white"/>
</svg>
