<svg width="24" height="16" viewBox="0 0 24 16" fill="none" xmlns="http://www.w3.org/2000/svg">
<rect x="0.366895" y="0.3" width="22.8667" height="15.4" rx="2.9" fill="white" stroke="#D9D9D9" stroke-width="0.6"/>
<path d="M9.9541 15.6662L23.196 11.8328C23.196 13.9499 21.4798 15.6662 19.3627 15.6662H9.9541Z" fill="#FD6020"/>
<path fill-rule="evenodd" clip-rule="evenodd" d="M20.6836 6.40626C21.4121 6.40626 21.8128 6.72862 21.8128 7.33753C21.8492 7.80316 21.5214 8.19716 21.0843 8.2688L22.0678 9.59406H21.3028L20.465 8.30461H20.3922V9.59406H19.7729V6.40626H20.6836ZM20.3918 7.87491H20.5739C20.9746 7.87491 21.1567 7.69582 21.1567 7.37346C21.1567 7.08691 20.9746 6.90782 20.5739 6.90782H20.3918V7.87491ZM17.6229 9.59406H19.3714V9.05679H18.2422V8.19716H19.3349V7.65989H18.2422V6.94353H19.3714V6.40626H17.6229V9.59406ZM15.8039 8.55534L14.9661 6.40626H14.3104L15.6582 9.6657H15.986L17.3338 6.40626H16.6781L15.8039 8.55534ZM8.40732 8.01811C8.40732 8.91356 9.13583 9.66574 10.0465 9.66574C10.3379 9.66574 10.5929 9.5941 10.8478 9.48665V8.77029C10.6657 8.98519 10.4107 9.12847 10.1193 9.12847C9.53651 9.12847 9.06298 8.69865 9.06298 8.12556V8.05393C9.02656 7.48084 9.50009 6.97939 10.0829 6.94357C10.3743 6.94357 10.6657 7.08684 10.8478 7.30175V6.58539C10.6293 6.44212 10.3379 6.4063 10.0829 6.4063C9.13583 6.33467 8.40732 7.08684 8.40732 8.01811ZM7.28017 7.62453C6.91591 7.48126 6.80663 7.40963 6.80663 7.23054C6.84306 7.01563 7.02519 6.83654 7.24374 6.87236C7.42587 6.87236 7.608 6.97981 7.7537 7.12308L8.08153 6.69327C7.82655 6.47836 7.49872 6.33509 7.17089 6.33509C6.66093 6.29927 6.22383 6.69327 6.1874 7.19472V7.23054C6.1874 7.66035 6.36953 7.91108 6.95234 8.09017C7.09804 8.12599 7.24374 8.19762 7.38944 8.26926C7.49872 8.34089 7.57157 8.44835 7.57157 8.59162C7.57157 8.84234 7.35302 9.05725 7.13446 9.05725H7.09804C6.80663 9.05725 6.55166 8.87816 6.44238 8.62744L6.0417 9.02144C6.26025 9.41543 6.69736 9.63034 7.13446 9.63034C7.71727 9.66616 8.1908 9.23634 8.22723 8.66326V8.5558C8.1908 8.12599 8.00868 7.91108 7.28017 7.62453ZM5.1667 9.59406H5.78593V6.40626H5.1667V9.59406ZM2.28857 6.40626H3.19921H3.38134C4.25555 6.44208 4.94764 7.15844 4.91121 8.01807C4.91121 8.4837 4.69266 8.91352 4.3284 9.23588C4.00057 9.48661 3.59989 9.62988 3.19921 9.59406H2.28857V6.40626ZM3.08955 9.05607C3.38095 9.09189 3.70878 8.98444 3.92734 8.80535C4.14589 8.59044 4.25517 8.3039 4.25517 7.98153C4.25517 7.69499 4.14589 7.40845 3.92734 7.19354C3.70878 7.01445 3.38095 6.90699 3.08955 6.94281H2.90742V9.05607H3.08955Z" fill="black"/>
<path fill-rule="evenodd" clip-rule="evenodd" d="M12.7049 6.33282C11.7942 6.33282 11.0293 7.04918 11.0293 7.98045C11.0293 8.8759 11.7578 9.62808 12.7049 9.6639C13.6519 9.69971 14.3804 8.94754 14.4169 8.01627C14.3804 7.085 13.6519 6.33282 12.7049 6.33282V6.33282Z" fill="#FD6020"/>
</svg>
