<svg width="23" height="16" viewBox="0 0 23 16" fill="none" xmlns="http://www.w3.org/2000/svg">
<rect x="0.433301" y="0.3" width="21.8" height="15.4" rx="2.9" fill="white" stroke="#D9D9D9" stroke-width="0.6"/>
<path fill-rule="evenodd" clip-rule="evenodd" d="M11.45 11.5873C10.6883 12.2729 9.70017 12.6868 8.62041 12.6868C6.21128 12.6868 4.2583 10.6264 4.2583 8.08478C4.2583 5.54317 6.21128 3.48279 8.62041 3.48279C9.70018 3.48279 10.6883 3.89669 11.4501 4.5823C12.2118 3.8967 13.1999 3.48281 14.2797 3.48281C16.6888 3.48281 18.6418 5.54319 18.6418 8.0848C18.6418 10.6264 16.6888 12.6868 14.2797 12.6868C13.1999 12.6868 12.2118 12.2729 11.45 11.5873Z" fill="#ED0006"/>
<path fill-rule="evenodd" clip-rule="evenodd" d="M11.4502 11.5872C12.388 10.7431 12.9826 9.48722 12.9826 8.08478C12.9826 6.68234 12.388 5.42642 11.4502 4.58233C12.2119 3.8967 13.2001 3.48279 14.2799 3.48279C16.689 3.48279 18.642 5.54317 18.642 8.08478C18.642 10.6264 16.689 12.6868 14.2799 12.6868C13.2001 12.6868 12.2119 12.2729 11.4502 11.5872Z" fill="#F9A000"/>
<path fill-rule="evenodd" clip-rule="evenodd" d="M11.4499 11.5873C12.3877 10.7432 12.9823 9.48728 12.9823 8.08484C12.9823 6.6824 12.3877 5.42649 11.4499 4.5824C10.5121 5.42649 9.91748 6.6824 9.91748 8.08484C9.91748 9.48728 10.5121 10.7432 11.4499 11.5873Z" fill="#FF5E00"/>
</svg>
